<svg width="250" height="250" viewBox="0 0 250 250" fill="none" xmlns="http://www.w3.org/2000/svg">
<rect x="109.926" y="11" width="30" height="225" rx="15" fill="#5B93FF"/>
<rect x="12.0002" y="138.074" width="30" height="225" rx="15" transform="rotate(-90 12.0002 138.074)" fill="#5B93FF"/>
<rect x="109.926" y="11" width="30" height="225" rx="15" fill="black" fill-opacity="0.25"/>
<rect x="12" y="138.074" width="30" height="225" rx="15" transform="rotate(-90 12 138.074)" fill="black" fill-opacity="0.25"/>
<circle cx="125" cy="124.317" r="39.2857" fill="#5B93FF"/>
<path d="M250 125C250 194.036 194.036 250 125 250C55.9644 250 0 194.036 0 125C0 55.9644 55.9644 0 125 0C194.036 0 250 55.9644 250 125ZM25 125C25 180.228 69.7715 225 125 225C180.228 225 225 180.228 225 125C225 69.7715 180.228 25 125 25C69.7715 25 25 69.7715 25 125Z" fill="#5B93FF"/>
</svg>
